# File created by Blade
# Date/Time:  Wed Jan 21 18:02:19 2015
# Frame Rate: 120.000 fps
#------------------------------------------------------
:FULLY-SPECIFIED
:DEGREES
1113
root 14.955728 35.700266 -22.963578 -184.110068 15.247996 -177.997971
Spine 2.599747 0.306746 -2.447755
Head -0.036191 -2.496301 6.828802
LeftShoulder -4.108379 -22.051346 -0.187875
LeftArm 1.910732 30.232005 -79.164721
LeftForeArm 1.249571 -0.000000 16.102753
LeftHand -0.834664 -0.000000 5.399124
LeftHandThumb1 -26.253704 0.000000 33.147579
RightShoulder -12.295394 -16.100454 15.363745
RightArm 5.898745 -5.049986 70.830603
RightForeArm -15.204145 0.000000 14.744076
RightHand 0.783214 0.000000 4.024163
RightHandThumb1 -24.326973 -0.000000 -32.862282
LeftUpLeg 10.917758 27.943821 0.534848
LeftLeg -7.015833 -0.000000 0.000000
LeftFoot -17.604911 37.778964 -7.790000
LeftToeBase 22.712858 -0.000000 -0.000000
RightUpLeg -4.779591 -7.281274 0.062389
RightLeg 27.269857 -0.000000 -0.000000
RightFoot -31.435790 -15.452677 20.586453
RightToeBase 16.564201 -0.000000 -0.000000
1114
root 15.026910 35.710519 -22.959099 -184.079530 14.917109 -177.834557
Spine 2.744586 0.228611 -2.154722
Head -0.311596 -2.693122 6.612012
LeftShoulder -4.038798 -21.881557 -0.335407
LeftArm 1.866709 31.470634 -79.568411
LeftForeArm 1.471016 -0.000000 16.207591
LeftHand -0.967040 0.000000 5.052508
LeftHandThumb1 -26.253704 0.000000 33.147579
RightShoulder -12.184221 -16.003218 15.157347
RightArm 6.106207 -5.098987 70.623317
RightForeArm -15.425990 -0.000000 14.799309
RightHand 0.781566 0.000000 4.046168
RightHandThumb1 -24.326973 -0.000000 -32.862282
LeftUpLeg 10.956544 27.896261 0.805382
LeftLeg -7.114455 -0.000000 0.000000
LeftFoot -17.446097 37.644534 -7.660896
LeftToeBase 22.752943 -0.000000 -0.000000
RightUpLeg -4.660067 -6.894433 -0.177652
RightLeg 26.638249 -0.000000 -0.000000
RightFoot -31.768384 -16.885518 20.789537
RightToeBase 15.968701 -0.000000 -0.000000
1115
root 15.102357 35.723018 -22.952509 -184.059397 14.467383 -177.741454
Spine 2.877442 0.075190 -2.007920
Head -0.570822 -2.911655 6.510488
LeftShoulder -3.898874 -21.806201 -0.441816
LeftArm 1.690539 32.462164 -80.033525
LeftForeArm 1.970445 -0.000000 16.153676
LeftHand -0.839131 -0.000000 4.536079
LeftHandThumb1 -26.253704 0.000000 33.147579
RightShoulder -12.113704 -15.974961 15.075058
RightArm 6.415910 -5.173237 70.364738
RightForeArm -15.605486 -0.000000 14.820321
RightHand 0.867910 -0.000000 4.129850
RightHandThumb1 -24.326973 -0.000000 -32.862282
LeftUpLeg 10.878999 27.951150 1.025132
LeftLeg -7.024053 -0.000000 0.000000
LeftFoot -17.350795 37.282907 -7.591026
LeftToeBase 22.829041 -0.000000 -0.000000
RightUpLeg -4.497343 -6.698110 -0.490877
RightLeg 25.898361 -0.000000 -0.000000
RightFoot -32.206042 -18.406560 20.883696
RightToeBase 15.787233 -0.000000 -0.000000
1116
root 15.176634 35.735107 -22.951154 -183.985425 14.044178 -177.575053
Spine 2.936011 -0.100644 -1.718384
Head -0.771806 -3.051324 6.312784
LeftShoulder -3.877560 -21.684349 -0.586960
LeftArm 1.525817 33.474995 -80.484958
LeftForeArm 2.488044 0.000000 16.129738
LeftHand -0.926573 -0.000000 3.914221
LeftHandThumb1 -26.253704 0.000000 33.147579
RightShoulder -11.980660 -16.032021 14.919572
RightArm 6.739281 -5.268208 70.083600
RightForeArm -15.752130 -0.000000 14.863777
RightHand 0.874672 0.000000 4.238082
RightHandThumb1 -24.326973 -0.000000 -32.862282
LeftUpLeg 10.806966 27.849642 1.276996
LeftLeg -7.018075 -0.000000 0.000000
LeftFoot -17.249214 37.101636 -7.481929
LeftToeBase 22.971477 -0.000000 -0.000000
RightUpLeg -4.330419 -6.503090 -0.736286
RightLeg 25.083268 -0.000000 -0.000000
RightFoot -32.570350 -19.865409 21.066516
RightToeBase 15.398794 -0.000000 -0.000000
1117
root 15.252205 35.745307 -22.946755 -183.955137 13.802190 -177.458043
Spine 3.018593 -0.075511 -1.490167
Head -0.930515 -3.223467 6.170918
LeftShoulder -3.803858 -21.605594 -0.704322
LeftArm 1.291470 34.543616 -80.987234
LeftForeArm 2.797891 -0.000000 16.052608
LeftHand -0.985969 -0.000000 3.492544
LeftHandThumb1 -26.253704 0.000000 33.147579
RightShoulder -11.807709 -15.881322 14.739681
RightArm 6.872730 -5.329100 69.849076
RightForeArm -15.953303 -0.000000 14.879853
RightHand 0.839517 0.000000 4.289407
RightHandThumb1 -24.326973 -0.000000 -32.862282
LeftUpLeg 10.808381 27.983045 1.533576
LeftLeg -7.040743 -0.000000 0.000000
LeftFoot -17.121587 36.840567 -7.439391
LeftToeBase 23.020674 -0.000000 -0.000000
RightUpLeg -4.174829 -6.090032 -1.000688
RightLeg 24.306727 -0.000000 -0.000000
RightFoot -32.892075 -21.311556 21.263407
RightToeBase 15.070475 -0.000000 -0.000000
1118
root 15.334793 35.755344 -22.947481 -183.870560 13.290249 -177.343763
Spine 3.007913 -0.289870 -1.305622
Head -1.056657 -3.377986 6.066436
LeftShoulder -3.733023 -21.496631 -0.812265
LeftArm 1.007036 35.510938 -81.498451
LeftForeArm 3.335864 -0.000000 15.918788
LeftHand -0.962849 -0.000000 3.068632
LeftHandThumb1 -26.253704 0.000000 33.147579
RightShoulder -11.642212 -15.831747 14.625074
RightArm 6.982594 -5.306908 69.598776
RightForeArm -16.262082 -0.000000 15.016907
RightHand 0.848825 -0.000000 4.430507
RightHandThumb1 -24.326973 -0.000000 -32.862282
LeftUpLeg 10.674150 27.784773 1.725584
LeftLeg -6.990681 -0.000000 0.000000
LeftFoot -17.037463 36.655606 -7.426371
LeftToeBase 23.130196 -0.000000 -0.000000
RightUpLeg -3.974734 -6.004438 -1.281453
RightLeg 23.442733 -0.000000 -0.000000
RightFoot -33.072579 -22.667938 21.065301
RightToeBase 15.084626 -0.000000 -0.000000
1119
root 15.424436 35.764995 -22.949912 -183.779369 12.734510 -177.248862
Spine 2.933032 -0.536770 -1.177547
Head -1.062107 -3.519735 6.015121
LeftShoulder -3.659413 -21.374579 -0.881648
LeftArm 0.672301 36.569301 -82.034253
LeftForeArm 3.660162 0.000000 15.732914
LeftHand -0.831587 -0.000000 2.480711
LeftHandThumb1 -26.253704 0.000000 33.147579
RightShoulder -11.626252 -15.839188 14.582466
RightArm 7.269749 -5.494279 69.290262
RightForeArm -16.572899 -0.000000 15.016964
RightHand 0.903936 -0.000000 4.510640
RightHandThumb1 -24.326973 -0.000000 -32.862282
LeftUpLeg 10.510710 27.529955 1.903924
LeftLeg -6.917004 -0.000000 0.000000
LeftFoot -16.926398 36.510359 -7.285246
LeftToeBase 23.423256 -0.000000 -0.000000
RightUpLeg -3.729819 -6.035592 -1.570957
RightLeg 22.494424 -0.000000 -0.000000
RightFoot -33.104521 -23.745745 20.942522
RightToeBase 15.006509 -0.000000 -0.000000
1120
root 15.512402 35.772786 -22.944349 -183.509924 12.119309 -177.177890
Spine 2.632591 -0.831815 -1.087180
Head -1.056161 -3.724856 6.004574
LeftShoulder -3.616418 -21.240439 -0.950533
LeftArm 0.280283 37.729439 -82.645881
LeftForeArm 4.256773 0.000000 15.470204
LeftHand -0.923468 -0.000000 2.331419
LeftHandThumb1 -26.253704 0.000000 33.147579
RightShoulder -11.540071 -15.771387 14.545232
RightArm 7.348205 -5.536196 68.985668
RightForeArm -16.897751 -0.000000 15.111853
RightHand 0.899338 -0.000000 4.728477
RightHandThumb1 -24.326973 -0.000000 -32.862282
LeftUpLeg 10.075503 27.148485 1.937059
LeftLeg -6.774743 -0.000000 0.000000
LeftFoot -16.884525 36.386897 -7.330198
LeftToeBase 23.478557 -0.000000 -0.000000
RightUpLeg -3.668193 -6.092558 -1.851370
RightLeg 21.561798 -0.000000 -0.000000
RightFoot -32.955361 -24.663503 20.695444
RightToeBase 14.774078 -0.000000 -0.000000
1121
root 15.604578 35.778344 -22.932003 -183.077784 11.657012 -177.150751
Spine 2.064850 -0.943452 -1.045725
Head -0.886908 -3.965281 6.010536
LeftShoulder -3.497978 -21.188717 -1.012523
LeftArm -0.399433 38.662967 -83.338275
LeftForeArm 4.572046 -0.000000 15.262033
LeftHand -0.915909 -0.000000 1.761986
LeftHandThumb1 -26.253704 0.000000 33.147579
RightShoulder -11.590521 -15.765266 14.558582
RightArm 7.508493 -5.618573 68.687698
RightForeArm -17.397644 -0.000000 15.134226
RightHand 0.843819 -0.000000 4.794963
RightHandThumb1 -24.326973 -0.000000 -32.862282
LeftUpLeg 9.424682 27.112725 1.896958
LeftLeg -6.542105 -0.000000 0.000000
LeftFoot -16.850960 36.062670 -7.272612
LeftToeBase 23.623609 -0.000000 -0.000000
RightUpLeg -3.841089 -5.959083 -2.115211
RightLeg 20.707187 -0.000000 -0.000000
RightFoot -32.554726 -25.458367 20.367689
RightToeBase 14.372191 -0.000000 -0.000000
1122
root 15.701330 35.782952 -22.922094 -182.733288 11.137285 -177.121750
Spine 1.602804 -1.065081 -1.026090
Head -0.725203 -4.163905 6.077512
LeftShoulder -3.389499 -21.004510 -1.058070
LeftArm -0.786599 39.560652 -83.916127
LeftForeArm 4.719509 -0.000000 14.856458
LeftHand -0.771339 0.000000 0.972058
LeftHandThumb1 -26.253704 0.000000 33.147579
RightShoulder -11.682894 -15.843696 14.629437
RightArm 7.810095 -5.749431 68.340847
RightForeArm -17.804374 0.000000 15.133482
RightHand 0.838542 -0.000000 4.919834
RightHandThumb1 -24.326973 -0.000000 -32.862282
LeftUpLeg 8.922615 26.725308 1.865721
LeftLeg -6.446357 -0.000000 0.000000
LeftFoot -16.778731 36.022058 -7.271331
LeftToeBase 23.731469 -0.000000 -0.000000
RightUpLeg -3.876261 -5.872770 -2.370035
RightLeg 19.823690 -0.000000 -0.000000
RightFoot -31.912491 -26.116491 20.021370
RightToeBase 13.921648 -0.000000 -0.000000
1123
root 15.804342 35.787911 -22.907828 -182.324879 10.560929 -177.055264
Spine 1.079826 -1.274198 -0.964698
Head -0.573559 -4.408461 6.133679
LeftShoulder -3.273860 -20.901593 -1.126022
LeftArm -1.420769 40.253136 -84.537789
LeftForeArm 4.909366 -0.000000 14.604458
LeftHand -0.764685 -0.000000 0.275325
LeftHandThumb1 -26.253704 0.000000 33.147579
RightShoulder -11.765315 -15.914380 14.703939
RightArm 8.109852 -5.819295 67.993305
RightForeArm -18.330650 -0.000000 15.123782
RightHand 0.842304 -0.000000 5.067760
RightHandThumb1 -24.326973 -0.000000 -32.862282
LeftUpLeg 8.311214 26.248283 1.850249
LeftLeg -6.286808 -0.000000 0.000000
LeftFoot -16.711445 36.002244 -7.206353
LeftToeBase 23.916215 -0.000000 -0.000000
RightUpLeg -3.905653 -5.752662 -2.549790
RightLeg 18.856611 -0.000000 -0.000000
RightFoot -30.975746 -26.677170 19.436059
RightToeBase 13.749437 -0.000000 -0.000000
1124
root 15.902966 35.789212 -22.880457 -181.734404 9.912327 -177.059425
Spine 0.304325 -1.573648 -0.974340
Head -0.324252 -4.567205 6.144312
LeftShoulder -3.235355 -20.686468 -1.182488
LeftArm -1.970224 41.108223 -85.129500
LeftForeArm 5.074896 -0.000000 14.293532
LeftHand -0.846444 -0.000000 -0.275797
LeftHandThumb1 -26.253704 0.000000 33.147579
RightShoulder -11.876312 -16.026304 14.761611
RightArm 8.439207 -6.016917 67.651161
RightForeArm -18.722384 -0.000000 15.084240
RightHand 0.789870 -0.000000 5.130801
RightHandThumb1 -24.326973 -0.000000 -32.862282
LeftUpLeg 7.400111 25.646591 1.643414
LeftLeg -6.047197 -0.000000 0.000000
LeftFoot -16.692163 36.062988 -7.182015
LeftToeBase 24.020747 -0.000000 -0.000000
RightUpLeg -4.195021 -5.720792 -2.773830
RightLeg 18.024298 -0.000000 -0.000000
RightFoot -29.994178 -26.941234 18.906854
RightToeBase 13.691065 -0.000000 -0.000000
1125
root 16.028503 35.789277 -22.894982 -181.614505 9.929645 -177.029225
Spine 0.067732 -1.182286 -0.989572
Head -0.198757 -4.766477 6.255095
LeftShoulder -3.175731 -20.592756 -1.197433
LeftArm -2.593037 41.807287 -85.741016
LeftForeArm 5.285936 -0.000000 13.935020
LeftHand -0.924371 -0.000000 -0.773772
LeftHandThumb1 -26.253704 0.000000 33.147579
RightShoulder -11.948951 -15.928841 14.821515
RightArm 8.594869 -5.982294 67.406844
RightForeArm -19.433442 -0.000000 15.114798
RightHand 0.738331 -0.000000 5.269376
RightHandThumb1 -24.326973 -0.000000 -32.862282
LeftUpLeg 7.375011 25.825113 1.876130
LeftLeg -6.101071 -0.000000 0.000000
LeftFoot -16.582981 35.902837 -7.175832
LeftToeBase 24.156276 -0.000000 -0.000000
RightUpLeg -3.935077 -4.900732 -2.946145
RightLeg 17.018283 -0.000000 -0.000000
RightFoot -28.924362 -27.201779 18.295971
RightToeBase 13.566738 -0.000000 -0.000000
